<?xml version="1.0" encoding="utf-8"?>
<!-- Generator: Adobe Illustrator 16.0.0, SVG Export Plug-In . SVG Version: 6.00 Build 0)  -->
<!DOCTYPE svg PUBLIC "-//W3C//DTD SVG 1.1//EN" "http://www.w3.org/Graphics/SVG/1.1/DTD/svg11.dtd">
<svg version="1.1" xmlns="http://www.w3.org/2000/svg" xmlns:xlink="http://www.w3.org/1999/xlink" x="0px" y="0px" width="25px"
	 height="38px" viewBox="0 0 25 38" enable-background="new 0 0 25 38" xml:space="preserve">
<g id="图层_1" display="none">
	<path display="inline" fill-rule="evenodd" clip-rule="evenodd" fill="#359BFF" d="M37,28H21v3h5c0.553,0,1,0.447,1,1v1
		c0,0.553-0.447,1-1,1h-5h-3h-5c-0.553,0-1-0.447-1-1v-1c0-0.553,0.447-1,1-1h5v-3H2c-1.104,0-2-0.896-2-2V2c0-1.104,0.896-2,2-2h35
		c1.104,0,2,0.896,2,2v24C39,27.104,38.104,28,37,28z M16,26h7v-2h-7V26z M37,2H2v20h35V2z"/>
</g>
<g id="图层_2">
	<path fill-rule="evenodd" clip-rule="evenodd" fill="#359BFF" d="M23,38H2c-1.104,0-2-0.896-2-2V2c0-1.104,0.896-2,2-2h21
		c1.104,0,2,0.896,2,2v34C25,37.104,24.104,38,23,38z M9,35h7v-2H9V35z M23,2H2v28h21V2z"/>
</g>
</svg>
