<?xml version="1.0" encoding="utf-8"?>
<!-- Generator: Adobe Illustrator 16.0.0, SVG Export Plug-In . SVG Version: 6.00 Build 0)  -->
<!DOCTYPE svg PUBLIC "-//W3C//DTD SVG 1.1//EN" "http://www.w3.org/Graphics/SVG/1.1/DTD/svg11.dtd">
<svg version="1.1" xmlns="http://www.w3.org/2000/svg" xmlns:xlink="http://www.w3.org/1999/xlink" x="0px" y="0px" width="39px"
	 height="34px" viewBox="0 0 39 34" enable-background="new 0 0 39 34" xml:space="preserve">
<g id="图层_1">
	<path fill-rule="evenodd" clip-rule="evenodd" fill="#359BFF" d="M37,28H21v3h5c0.553,0,1,0.447,1,1v1c0,0.553-0.447,1-1,1h-5h-3
		h-5c-0.553,0-1-0.447-1-1v-1c0-0.553,0.447-1,1-1h5v-3H2c-1.104,0-2-0.896-2-2V2c0-1.104,0.896-2,2-2h35c1.104,0,2,0.896,2,2v24
		C39,27.104,38.104,28,37,28z M16,26h7v-2h-7V26z M37,2H2v20h35V2z"/>
</g>
<g id="图层_2" display="none">
	<path display="inline" fill-rule="evenodd" clip-rule="evenodd" fill="#359BFF" d="M36.5,44.5h-21c-1.104,0-2-0.896-2-2v-34
		c0-1.104,0.896-2,2-2h21c1.104,0,2,0.896,2,2v34C38.5,43.604,37.604,44.5,36.5,44.5z M22.5,41.5h7v-2h-7V41.5z M36.5,8.5h-21v28h21
		V8.5z"/>
</g>
</svg>
